<svg xmlns="http://www.w3.org/2000/svg" xmlns:xlink="http://www.w3.org/1999/xlink" width="25" height="24" viewBox="0 0 25 24"><defs><path id="a" d="M708.26 3307.27c0 .53-.43.95-.96.95h-16.82a.95.95 0 0 1-.96-.95v-10.12h2.22c-.2.64-.32 1.34-.32 2.04 0 4 3.37 7.24 7.5 7.24a7.38 7.38 0 0 0 7.53-7.24c0-.7-.11-1.4-.32-2.04h2.13zm-4.47-8.33a4.77 4.77 0 0 1-4.86 4.68 4.77 4.77 0 0 1-4.85-4.68 4.77 4.77 0 0 1 4.85-4.67c2.69 0 4.86 2.1 4.86 4.67zm4.47-5.62c0 .59-.5 1.08-1.09 1.08h-2.74c-.6 0-1.08-.49-1.08-1.08v-2.58c0-.59.49-1.08 1.08-1.08h2.74c.6 0 1.09.49 1.09 1.08zm2.73-3.25a3.1 3.1 0 0 0-3.1-3.08h-17.96a3.1 3.1 0 0 0-3.1 3.08v17.84a3.1 3.1 0 0 0 3.1 3.08h17.96a3.1 3.1 0 0 0 3.1-3.08z"/></defs><desc>Generated with Avocode.</desc><g transform="translate(-686 -3287)"><use fill="#f5d76e" xlink:href="#a"/></g></svg>