<svg xmlns="http://www.w3.org/2000/svg" xmlns:xlink="http://www.w3.org/1999/xlink" width="25" height="20" viewBox="0 0 25 20"><defs><path id="a" d="M657.72 3291.37c-.9.39-1.9.67-2.92.78a5.06 5.06 0 0 0 2.23-2.78c-.97.58-2.08 1-3.22 1.22a5.07 5.07 0 0 0-3.72-1.6 5.07 5.07 0 0 0-4.95 6.21 14.46 14.46 0 0 1-10.48-5.29 5.02 5.02 0 0 0 1.57 6.75 5.06 5.06 0 0 1-2.3-.64v.07a5.06 5.06 0 0 0 4.08 4.95 5.38 5.38 0 0 1-2.3.09c.65 2 2.52 3.45 4.76 3.5a10.22 10.22 0 0 1-7.54 2.1 14.5 14.5 0 0 0 7.8 2.26c9.35 0 14.46-7.69 14.46-14.36 0-.22 0-.43-.02-.65 1-.72 1.86-1.61 2.55-2.61z"/></defs><desc>Generated with Avocode.</desc><g transform="translate(-633 -3289)"><use fill="#fff" xlink:href="#a"/></g></svg>